# xmcd
#
# Track frame offsets:
#	150
#	17655
#	39794
#	68514
#
# Disc length: 1250 seconds
#
# Revision: 3
# Processed by: cddbd v1.5.2PL0 Copyright (c) Steve Scherf et al.
# Submitted via: audiograbber 1.83.01
#
DISCID=2104e004
DTITLE=Moderat - III (Deluxe Edition) (2CD DigiPak) [CD 2)
DYEAR=2016
DGENRE=Electro-Pop
TTITLE0=Reminder
TTITLE1=Fondle
TTITLE2=Reminder (Special Request Remix)
TTITLE3=Reminder (Answer Code Request Remix)
EXTD=MARO\n
EXTT0=
EXTT1=
EXTT2=
EXTT3=
PLAYORDER=
